<svg width="163" height="97" viewBox="0 0 163 97" fill="none" xmlns="http://www.w3.org/2000/svg">
<path d="M160.5 48.5C160.5 60.6595 152.203 72.1052 137.851 80.6463C123.551 89.1559 103.634 94.5 81.5 94.5C59.366 94.5 39.4489 89.1559 25.1493 80.6463C10.7967 72.1052 2.5 60.6595 2.5 48.5C2.5 36.3405 10.7967 24.8948 25.1493 16.3537C39.4489 7.84411 59.366 2.5 81.5 2.5C103.634 2.5 123.551 7.84411 137.851 16.3537C152.203 24.8948 160.5 36.3405 160.5 48.5Z" fill="#7392C5" stroke="#1C2C59" stroke-width="5"/>
<path d="M26.418 36.2344C25.707 36.9922 25.1406 37.3711 24.7188 37.3711C24.25 37.3711 23.832 37.0703 23.4648 36.4688C23.1055 35.875 22.9258 35.2461 22.9258 34.582C22.9258 33.918 23.082 33.3398 23.3945 32.8477C23.7148 32.3477 24.1367 31.9062 24.6602 31.5234C25.1836 31.1406 25.7812 30.8086 26.4531 30.5273C27.1328 30.2461 27.8359 30.0156 28.5625 29.8359C30 29.4688 31.207 29.2852 32.1836 29.2852C33.168 29.2852 33.9922 29.3281 34.6562 29.4141C35.3203 29.4922 35.9609 29.625 36.5781 29.8125C37.1953 30 37.7773 30.2422 38.3242 30.5391C38.8711 30.8281 39.3516 31.1797 39.7656 31.5938C40.6406 32.4922 41.0781 33.6133 41.0781 34.957C41.0781 36.3477 40.6406 37.7734 39.7656 39.2344C38.9219 40.6484 37.8281 41.8203 36.4844 42.75C35.0547 43.7266 33.6133 44.2148 32.1602 44.2148C31.4492 44.2148 30.8242 44.0391 30.2852 43.6875C30.0273 43.5078 29.8945 43.3008 29.8867 43.0664C29.8789 42.8242 29.8828 42.6055 29.8984 42.4102C29.9609 41.6055 30.1367 40.6602 30.4258 39.5742C30.9961 39.8086 31.6055 39.9258 32.2539 39.9258C32.9023 39.9258 33.4414 39.8594 33.8711 39.7266C34.3008 39.5859 34.7305 39.3906 35.1602 39.1406C35.5977 38.8906 36.0156 38.5938 36.4141 38.25C36.8203 37.9062 37.1797 37.5234 37.4922 37.1016C38.1719 36.1797 38.5117 35.3047 38.5117 34.4766C38.5117 33.6484 38.3203 32.9961 37.9375 32.5195C37.5625 32.0352 37.0781 31.6484 36.4844 31.3594C35.3672 30.8047 33.9883 30.5273 32.3477 30.5273C30.9336 30.5273 29.4883 30.8125 28.0117 31.3828C26.9805 31.7891 26.2383 32.3047 25.7852 32.9297C25.5508 33.2578 25.4336 33.6172 25.4336 34.0078C25.4336 34.8906 25.7617 35.6328 26.418 36.2344ZM22.0352 47.2266C22.4336 46.8047 22.9023 46.0742 23.4414 45.0352C23.9805 43.9883 24.4414 43.082 24.8242 42.3164C25.207 41.5508 25.6055 40.7656 26.0195 39.9609C26.4414 39.1562 26.8711 38.3594 27.3086 37.5703C27.7539 36.7734 28.2031 36.0234 28.6562 35.3203C29.6641 33.7734 30.5859 32.6875 31.4219 32.0625C31.5156 31.9844 31.6172 31.9453 31.7266 31.9453C31.8438 31.9453 31.9609 31.9648 32.0781 32.0039C32.3359 32.0898 32.5625 32.2227 32.7578 32.4023C31.7812 33.1836 30.7734 35.2344 29.7344 38.5547C29.4375 39.4844 29.1484 40.4141 28.8672 41.3438C28.5859 42.2656 28.3125 43.1562 28.0469 44.0156C27.7891 44.875 27.5312 45.6328 27.2734 46.2891C26.7188 47.7344 26.2227 48.457 25.7852 48.457C24.4023 48.457 23.3203 48.1758 22.5391 47.6133C22.3438 47.4727 22.1758 47.3438 22.0352 47.2266ZM46.6562 46.125C45.5859 47.375 44.2812 48 42.7422 48C41.7656 48 40.9844 47.707 40.3984 47.1211C39.8203 46.543 39.5312 45.7812 39.5312 44.8359C39.5312 43.6406 40 42.4805 40.9375 41.3555C41.8438 40.2617 43.0312 39.3711 44.5 38.6836C46.0234 37.9727 47.5977 37.6172 49.2227 37.6172C49.8398 37.6172 50.2812 37.7148 50.5469 37.9102C50.7578 37.6602 50.9453 37.5156 51.1094 37.4766C51.2812 37.4297 51.4141 37.4062 51.5078 37.4062C51.8047 37.4062 52.1211 37.4492 52.457 37.5352C52.4258 37.6367 52.3594 37.8125 52.2578 38.0625C52.1562 38.3047 52.043 38.5938 51.918 38.9297C51.793 39.2656 51.6602 39.6328 51.5195 40.0312C51.0117 41.4531 50.7578 42.5195 50.7578 43.2305C50.7578 43.9336 50.9805 44.2852 51.4258 44.2852C52.0039 44.2852 52.6484 44.0234 53.3594 43.5C53.9922 43.0234 54.5469 42.4297 55.0234 41.7188C55.375 41.6953 55.5508 41.8398 55.5508 42.1523C55.5508 42.418 55.3867 42.8242 55.0586 43.3711C54.7383 43.918 54.4258 44.3906 54.1211 44.7891C53.8164 45.1875 53.4766 45.5781 53.1016 45.9609C52.7266 46.3438 52.3281 46.6875 51.9062 46.9922C50.9609 47.6641 50.0391 48 49.1406 48C48 48 47.2344 47.6562 46.8438 46.9688C46.7188 46.7578 46.6562 46.5742 46.6562 46.418C46.6562 46.2539 46.6562 46.1562 46.6562 46.125ZM43.3047 42.9258C43.3047 43.832 43.6836 44.2852 44.4414 44.2852C45.2773 44.2852 46.2617 43.6094 47.3945 42.2578C47.9961 41.5391 48.5195 40.8516 48.9648 40.1953C49.418 39.5391 49.7617 39.0391 49.9961 38.6953C48.043 38.7109 46.4219 39.1562 45.1328 40.0312C43.9141 40.8594 43.3047 41.8242 43.3047 42.9258ZM57.5312 48.0117C55.0391 48.0117 53.793 46.9531 53.793 44.8359C53.793 43.3594 54.7734 41.3125 56.7344 38.6953C56.5391 38.6328 56.3594 38.5781 56.1953 38.5312C56.0312 38.4844 55.8984 38.4453 55.7969 38.4141C55.6953 38.375 55.6328 38.3164 55.6094 38.2383C55.5859 38.1602 55.5781 38.0703 55.5859 37.9688C55.6172 37.7344 55.6719 37.5469 55.75 37.4062L57.5195 37.6992C58.9023 36.0195 60.0938 34.8672 61.0938 34.2422C61.3984 34.0547 61.6133 33.9609 61.7383 33.9609C61.8633 33.9609 61.9727 33.9805 62.0664 34.0195C62.168 34.0508 62.2695 34.0938 62.3711 34.1484C62.5898 34.2656 62.7617 34.4023 62.8867 34.5586C61.832 35.5898 60.8438 36.7734 59.9219 38.1094C61.7109 38.4219 62.8047 38.5898 63.2031 38.6133C62.9922 39.4492 62.75 39.8672 62.4766 39.8672C61.8047 39.8672 60.6992 39.6836 59.1602 39.3164C58.3867 40.6055 58 41.6758 58 42.5273C58 43.6992 58.7891 44.2852 60.3672 44.2852C62.1328 44.2852 63.5859 43.4297 64.7266 41.7188C65.0781 41.6953 65.2539 41.8398 65.2539 42.1523C65.2539 42.4258 65.0898 42.8359 64.7617 43.3828C64.4336 43.9219 64.1055 44.3906 63.7773 44.7891C63.4492 45.1875 63.0703 45.582 62.6406 45.9727C62.2109 46.3555 61.7344 46.6992 61.2109 47.0039C60.0703 47.6758 58.8438 48.0117 57.5312 48.0117ZM72.4375 35.0742C72.1172 35.2305 71.7695 35.3516 71.3945 35.4375C71.0273 35.5156 70.707 35.5547 70.4336 35.5547C70.1602 35.5547 69.9141 35.5234 69.6953 35.4609C69.4766 35.3906 69.2812 35.293 69.1094 35.168C68.7344 34.8945 68.5469 34.5664 68.5469 34.1836C68.5469 33.8008 68.6133 33.4766 68.7461 33.2109C68.8867 32.9453 69.0859 32.7188 69.3438 32.5312C69.8984 32.125 70.5625 31.9219 71.3359 31.9219C72.1172 31.9219 72.6836 32.082 73.0352 32.4023C73.3945 32.7227 73.5742 33.0898 73.5742 33.5039C73.5742 33.918 73.4648 34.2422 73.2461 34.4766C73.0273 34.7109 72.7578 34.9102 72.4375 35.0742ZM63.4141 46.6406C63.25 46.2891 63.168 45.8594 63.168 45.3516C63.168 44.8359 63.2773 44.293 63.4961 43.7227C63.7227 43.1523 64.0078 42.5859 64.3516 42.0234C64.7031 41.4531 65.0938 40.9062 65.5234 40.3828C65.9531 39.8516 66.3789 39.3828 66.8008 38.9766C67.7305 38.0938 68.4141 37.6523 68.8516 37.6523C69.0391 37.6523 69.2461 37.7344 69.4727 37.8984C69.707 38.0547 69.8555 38.1719 69.918 38.25C68.7383 39.5156 67.9922 40.7383 67.6797 41.918C67.5781 42.2773 67.5273 42.6289 67.5273 42.9727C67.5273 43.3086 67.6562 43.6133 67.9141 43.8867C68.1719 44.1523 68.4922 44.2852 68.875 44.2852C69.2578 44.2852 69.6133 44.2148 69.9414 44.0742C70.2773 43.9258 70.6055 43.7344 70.9258 43.5C71.5586 43.0234 72.1133 42.4297 72.5898 41.7188C72.9414 41.6953 73.1172 41.8398 73.1172 42.1523C73.1172 42.4102 72.9531 42.8164 72.625 43.3711C72.3047 43.9258 71.9844 44.4062 71.6641 44.8125C71.3438 45.2109 70.9766 45.6055 70.5625 45.9961C70.1562 46.3867 69.7109 46.7344 69.2266 47.0391C68.1406 47.7266 67.0234 48.0703 65.875 48.0703C64.6641 48.0703 63.8438 47.5938 63.4141 46.6406ZM81.0273 38.3203C80.5977 38.2891 80.1797 38.2969 79.7734 38.3438C79.7734 38.4219 79.7734 38.5586 79.7734 38.7539C79.7734 38.9492 79.8008 39.2422 79.8555 39.6328C79.9102 40.0234 79.9766 40.4531 80.0547 40.9219C80.2734 42.25 80.3828 43.1484 80.3828 43.6172C80.3828 44.0859 80.3516 44.4688 80.2891 44.7656C81.4688 44.4688 82.5508 43.7891 83.5352 42.7266C83.832 42.4062 84.0977 42.0703 84.332 41.7188C84.5586 41.7031 84.7031 41.7461 84.7656 41.8477C84.8281 41.9414 84.8594 42.043 84.8594 42.1523C84.8594 42.2617 84.7695 42.5273 84.5898 42.9492C84.4102 43.3711 84.0664 43.9023 83.5586 44.543C83.0586 45.1836 82.4336 45.7617 81.6836 46.2773C79.9883 47.4414 77.9492 48.0312 75.5664 48.0469C75.3477 48.0625 75.0312 48.0703 74.6172 48.0703C74.2031 48.0703 73.7461 47.957 73.2461 47.7305C72.7461 47.4961 72.3203 47.1797 71.9688 46.7812C71.2422 45.9609 70.8789 44.9102 70.8789 43.6289C70.8789 43.0977 71.2812 42.5 72.0859 41.8359C72.3125 41.6484 72.5391 41.4844 72.7656 41.3438C73.5469 40.1719 74.6562 39.1562 76.0938 38.2969C77.5391 37.4375 78.8906 37.0078 80.1484 37.0078C80.6016 37.0078 80.9141 37.1328 81.0859 37.3828C81.2734 37.6484 81.2539 37.9609 81.0273 38.3203ZM75.1328 43.7695C75.3047 43.9023 75.4961 43.9688 75.707 43.9688C75.918 43.9688 76.125 43.8867 76.3281 43.7227C76.5312 43.5586 76.7148 43.3398 76.8789 43.0664C77.0508 42.793 77.1992 42.4766 77.3242 42.1172C77.457 41.7578 77.5742 41.3828 77.6758 40.9922C77.8477 40.3359 78.0195 39.5586 78.1914 38.6602C76.8711 39.0664 75.7031 39.7109 74.6875 40.5938C74.3828 40.8672 74.1172 41.1445 73.8906 41.4258C74.1641 42.5508 74.5781 43.332 75.1328 43.7695ZM92.793 38.3203C92.3633 38.2891 91.9453 38.2969 91.5391 38.3438C91.5391 38.4219 91.5391 38.5586 91.5391 38.7539C91.5391 38.9492 91.5664 39.2422 91.6211 39.6328C91.6758 40.0234 91.7422 40.4531 91.8203 40.9219C92.0391 42.25 92.1484 43.1484 92.1484 43.6172C92.1484 44.0859 92.1172 44.4688 92.0547 44.7656C93.2344 44.4688 94.3164 43.7891 95.3008 42.7266C95.5977 42.4062 95.8633 42.0703 96.0977 41.7188C96.3242 41.7031 96.4688 41.7461 96.5312 41.8477C96.5938 41.9414 96.625 42.043 96.625 42.1523C96.625 42.2617 96.5352 42.5273 96.3555 42.9492C96.1758 43.3711 95.832 43.9023 95.3242 44.543C94.8242 45.1836 94.1992 45.7617 93.4492 46.2773C91.7539 47.4414 89.7148 48.0312 87.332 48.0469C87.1133 48.0625 86.7969 48.0703 86.3828 48.0703C85.9688 48.0703 85.5117 47.957 85.0117 47.7305C84.5117 47.4961 84.0859 47.1797 83.7344 46.7812C83.0078 45.9609 82.6445 44.9102 82.6445 43.6289C82.6445 43.0977 83.0469 42.5 83.8516 41.8359C84.0781 41.6484 84.3047 41.4844 84.5312 41.3438C85.3125 40.1719 86.4219 39.1562 87.8594 38.2969C89.3047 37.4375 90.6562 37.0078 91.9141 37.0078C92.3672 37.0078 92.6797 37.1328 92.8516 37.3828C93.0391 37.6484 93.0195 37.9609 92.793 38.3203ZM86.8984 43.7695C87.0703 43.9023 87.2617 43.9688 87.4727 43.9688C87.6836 43.9688 87.8906 43.8867 88.0938 43.7227C88.2969 43.5586 88.4805 43.3398 88.6445 43.0664C88.8164 42.793 88.9648 42.4766 89.0898 42.1172C89.2227 41.7578 89.3398 41.3828 89.4414 40.9922C89.6133 40.3359 89.7852 39.5586 89.957 38.6602C88.6367 39.0664 87.4688 39.7109 86.4531 40.5938C86.1484 40.8672 85.8828 41.1445 85.6562 41.4258C85.9297 42.5508 86.3438 43.332 86.8984 43.7695ZM99.0742 43.3945C99.5273 44.207 100.555 44.6133 102.156 44.6133C103.156 44.6133 104.098 44.3711 104.98 43.8867C105.871 43.3945 106.633 42.6719 107.266 41.7188C107.617 41.6953 107.793 41.8398 107.793 42.1523C107.793 42.5039 107.582 43.0117 107.16 43.6758C106.746 44.332 106.355 44.8633 105.988 45.2695C105.629 45.6758 105.223 46.0547 104.77 46.4062C104.324 46.75 103.844 47.0469 103.328 47.2969C102.211 47.8438 101.035 48.1172 99.8008 48.1172C97.3164 48.1172 95.7031 47.4297 94.9609 46.0547C94.6953 45.5547 94.5625 44.9844 94.5625 44.3438C94.5625 43.6953 94.6719 43.1016 94.8906 42.5625C95.1172 42.0234 95.4258 41.5117 95.8164 41.0273C96.207 40.5352 96.6719 40.082 97.2109 39.668C97.75 39.2539 98.3359 38.8984 98.9688 38.6016C100.312 37.9531 101.684 37.6289 103.082 37.6289C104.09 37.6289 104.781 37.9453 105.156 38.5781C105.289 38.7969 105.355 39.0898 105.355 39.457C105.355 39.8164 105.262 40.1719 105.074 40.5234C104.895 40.875 104.648 41.1953 104.336 41.4844C104.023 41.7656 103.66 42.0156 103.246 42.2344C102.832 42.4453 102.391 42.6289 101.922 42.7852C101.094 43.0664 100.145 43.2695 99.0742 43.3945ZM98.9102 42.3047C99.9102 42.1875 100.77 41.9102 101.488 41.4727C102.246 41.0039 102.625 40.457 102.625 39.832C102.625 39.1992 102.336 38.8828 101.758 38.8828C101.008 38.8828 100.355 39.2422 99.8008 39.9609C99.2695 40.6484 98.9727 41.4297 98.9102 42.3047ZM111.402 40.9688C110.465 40.9219 109.668 40.8242 109.012 40.6758C108.207 42.0742 107.418 43.3203 106.645 44.4141C106.543 44.5781 106.312 44.6211 105.953 44.543C105.312 44.4023 104.945 44.2383 104.852 44.0508C106.242 43.0742 107.219 41.8203 107.781 40.2891C106.961 39.9141 106.551 39.3828 106.551 38.6953C106.551 38.2734 106.828 37.7344 107.383 37.0781C107.906 36.4375 108.293 36.1172 108.543 36.1172C109.309 36.1172 109.891 36.3125 110.289 36.7031C110.445 36.8516 110.523 37.0508 110.523 37.3008C110.523 37.543 110.391 37.9531 110.125 38.5312C111.328 39.1172 112.844 39.4609 114.672 39.5625C114.617 40.1016 114.391 40.5391 113.992 40.875C113.883 40.9766 113.773 41.0273 113.664 41.0273C113.109 41.5273 112.719 42.0703 112.492 42.6562C112.422 42.8438 112.387 43.0234 112.387 43.1953C112.387 43.9219 112.82 44.2852 113.688 44.2852C114.273 44.2852 114.922 44.0234 115.633 43.5C116.266 43.0234 116.82 42.4297 117.297 41.7188C117.648 41.6953 117.824 41.8398 117.824 42.1523C117.824 42.418 117.66 42.8242 117.332 43.3711C117.012 43.918 116.699 44.3906 116.395 44.7891C116.09 45.1875 115.75 45.5781 115.375 45.9609C115 46.3438 114.602 46.6875 114.18 46.9922C113.234 47.6641 112.309 48 111.402 48C109.863 48 108.832 47.5234 108.309 46.5703C108.129 46.25 108.039 45.8789 108.039 45.457C108.039 45.0273 108.125 44.6055 108.297 44.1914C108.477 43.7773 108.719 43.375 109.023 42.9844C109.648 42.1719 110.441 41.5 111.402 40.9688ZM125.008 35.0742C124.688 35.2305 124.34 35.3516 123.965 35.4375C123.598 35.5156 123.277 35.5547 123.004 35.5547C122.73 35.5547 122.484 35.5234 122.266 35.4609C122.047 35.3906 121.852 35.293 121.68 35.168C121.305 34.8945 121.117 34.5664 121.117 34.1836C121.117 33.8008 121.184 33.4766 121.316 33.2109C121.457 32.9453 121.656 32.7188 121.914 32.5312C122.469 32.125 123.133 31.9219 123.906 31.9219C124.688 31.9219 125.254 32.082 125.605 32.4023C125.965 32.7227 126.145 33.0898 126.145 33.5039C126.145 33.918 126.035 34.2422 125.816 34.4766C125.598 34.7109 125.328 34.9102 125.008 35.0742ZM115.984 46.6406C115.82 46.2891 115.738 45.8594 115.738 45.3516C115.738 44.8359 115.848 44.293 116.066 43.7227C116.293 43.1523 116.578 42.5859 116.922 42.0234C117.273 41.4531 117.664 40.9062 118.094 40.3828C118.523 39.8516 118.949 39.3828 119.371 38.9766C120.301 38.0938 120.984 37.6523 121.422 37.6523C121.609 37.6523 121.816 37.7344 122.043 37.8984C122.277 38.0547 122.426 38.1719 122.488 38.25C121.309 39.5156 120.562 40.7383 120.25 41.918C120.148 42.2773 120.098 42.6289 120.098 42.9727C120.098 43.3086 120.227 43.6133 120.484 43.8867C120.742 44.1523 121.062 44.2852 121.445 44.2852C121.828 44.2852 122.184 44.2148 122.512 44.0742C122.848 43.9258 123.176 43.7344 123.496 43.5C124.129 43.0234 124.684 42.4297 125.16 41.7188C125.512 41.6953 125.688 41.8398 125.688 42.1523C125.688 42.4102 125.523 42.8164 125.195 43.3711C124.875 43.9258 124.555 44.4062 124.234 44.8125C123.914 45.2109 123.547 45.6055 123.133 45.9961C122.727 46.3867 122.281 46.7344 121.797 47.0391C120.711 47.7266 119.594 48.0703 118.445 48.0703C117.234 48.0703 116.414 47.5938 115.984 46.6406ZM128.113 43.3945C128.566 44.207 129.594 44.6133 131.195 44.6133C132.195 44.6133 133.137 44.3711 134.02 43.8867C134.91 43.3945 135.672 42.6719 136.305 41.7188C136.656 41.6953 136.832 41.8398 136.832 42.1523C136.832 42.5039 136.621 43.0117 136.199 43.6758C135.785 44.332 135.395 44.8633 135.027 45.2695C134.668 45.6758 134.262 46.0547 133.809 46.4062C133.363 46.75 132.883 47.0469 132.367 47.2969C131.25 47.8438 130.074 48.1172 128.84 48.1172C126.355 48.1172 124.742 47.4297 124 46.0547C123.734 45.5547 123.602 44.9844 123.602 44.3438C123.602 43.6953 123.711 43.1016 123.93 42.5625C124.156 42.0234 124.465 41.5117 124.855 41.0273C125.246 40.5352 125.711 40.082 126.25 39.668C126.789 39.2539 127.375 38.8984 128.008 38.6016C129.352 37.9531 130.723 37.6289 132.121 37.6289C133.129 37.6289 133.82 37.9453 134.195 38.5781C134.328 38.7969 134.395 39.0898 134.395 39.457C134.395 39.8164 134.301 40.1719 134.113 40.5234C133.934 40.875 133.688 41.1953 133.375 41.4844C133.062 41.7656 132.699 42.0156 132.285 42.2344C131.871 42.4453 131.43 42.6289 130.961 42.7852C130.133 43.0664 129.184 43.2695 128.113 43.3945ZM127.949 42.3047C128.949 42.1875 129.809 41.9102 130.527 41.4727C131.285 41.0039 131.664 40.457 131.664 39.832C131.664 39.1992 131.375 38.8828 130.797 38.8828C130.047 38.8828 129.395 39.2422 128.84 39.9609C128.309 40.6484 128.012 41.4297 127.949 42.3047ZM60.0273 75.6328C60.0352 73.9688 60.6211 71.7891 61.7852 69.0938C61.0039 68.8828 60.2422 68.6484 59.5 68.3906C58.7656 68.1328 58.0352 67.8945 57.3086 67.6758C55.7148 72.1523 53.8867 75.3516 51.8242 77.2734C50.582 78.4297 49.3242 79.0078 48.0508 79.0078C46.4023 79.0078 45.3711 78.1719 44.957 76.5C44.8242 75.9922 44.7578 75.4219 44.7578 74.7891C44.7578 74.1484 44.8477 73.4727 45.0273 72.7617C45.2148 72.0508 45.4805 71.3594 45.8242 70.6875C46.1758 70.0078 46.6016 69.3633 47.1016 68.7539C47.6094 68.1445 48.1836 67.6094 48.8242 67.1484C50.2305 66.1562 51.7734 65.6602 53.4531 65.6602C54.1953 65.6602 55.0547 65.7695 56.0312 65.9883C57.2031 63.3945 57.8672 61.2227 58.0234 59.4727C58.4922 59.4727 58.8398 59.582 59.0664 59.8008C59.2461 59.9727 59.1367 60.9531 58.7383 62.7422C58.5039 63.8203 58.168 65.0469 57.7305 66.4219C60.043 67.0547 61.6211 67.4492 62.4648 67.6055C63.6367 65.168 64.9023 62.9609 66.2617 60.9844C66.6523 60.4141 67.0039 59.9336 67.3164 59.543C67.418 59.4258 67.5312 59.3672 67.6562 59.3672C67.7891 59.3672 67.9141 59.3906 68.0312 59.4375C68.2344 59.5078 68.4531 59.6367 68.6875 59.8242C67.8516 60.8711 66.8711 62.7734 65.7461 65.5312C65.4102 66.3359 65.1094 67.125 64.8438 67.8984C65.1406 67.9141 65.4375 67.9219 65.7344 67.9219C66.0312 67.9219 66.332 67.9102 66.6367 67.8867C66.5898 68.5195 66.4258 69.0156 66.1445 69.375C65.9961 69.5547 65.75 69.6445 65.4062 69.6445C65.0703 69.6445 64.7031 69.6211 64.3047 69.5742C63.9766 70.707 63.8125 71.4883 63.8125 71.918C63.8125 72.3398 63.8242 72.6797 63.8477 72.9375C63.8789 73.1875 63.9414 73.4141 64.0352 73.6172C64.2305 74.0625 64.5703 74.2852 65.0547 74.2852C65.9375 74.2852 66.8633 73.7734 67.832 72.75C68.1367 72.4375 68.4141 72.0938 68.6641 71.7188C69.0156 71.6953 69.1914 71.8398 69.1914 72.1523C69.1914 72.4727 68.9961 72.9375 68.6055 73.5469C68.2227 74.1562 67.8555 74.6797 67.5039 75.1172C67.1523 75.5547 66.7734 75.9766 66.3672 76.3828C65.9609 76.7891 65.5469 77.1484 65.125 77.4609C64.2031 78.1562 63.4102 78.5039 62.7461 78.5039C60.9336 78.5039 60.0273 77.5469 60.0273 75.6328ZM47.8984 71.7891C47.8984 73.3438 48.418 74.1211 49.457 74.1211C50.5352 74.1211 51.8711 72.9609 53.4648 70.6406C54.1758 69.6016 54.8398 68.457 55.457 67.207C54.8633 67.082 54.168 67.0195 53.3711 67.0195C52.582 67.0195 51.8242 67.168 51.0977 67.4648C50.3711 67.7539 49.7695 68.125 49.293 68.5781C48.3633 69.4766 47.8984 70.5469 47.8984 71.7891ZM74.0898 76.125C73.0195 77.375 71.7148 78 70.1758 78C69.1992 78 68.418 77.707 67.832 77.1211C67.2539 76.543 66.9648 75.7812 66.9648 74.8359C66.9648 73.6406 67.4336 72.4805 68.3711 71.3555C69.2773 70.2617 70.4648 69.3711 71.9336 68.6836C73.457 67.9727 75.0312 67.6172 76.6562 67.6172C77.2734 67.6172 77.7148 67.7148 77.9805 67.9102C78.1914 67.6602 78.3789 67.5156 78.543 67.4766C78.7148 67.4297 78.8477 67.4062 78.9414 67.4062C79.2383 67.4062 79.5547 67.4492 79.8906 67.5352C79.8594 67.6367 79.793 67.8125 79.6914 68.0625C79.5898 68.3047 79.4766 68.5938 79.3516 68.9297C79.2266 69.2656 79.0938 69.6328 78.9531 70.0312C78.4453 71.4531 78.1914 72.5195 78.1914 73.2305C78.1914 73.9336 78.4141 74.2852 78.8594 74.2852C79.4375 74.2852 80.082 74.0234 80.793 73.5C81.4258 73.0234 81.9805 72.4297 82.457 71.7188C82.8086 71.6953 82.9844 71.8398 82.9844 72.1523C82.9844 72.418 82.8203 72.8242 82.4922 73.3711C82.1719 73.918 81.8594 74.3906 81.5547 74.7891C81.25 75.1875 80.9102 75.5781 80.5352 75.9609C80.1602 76.3438 79.7617 76.6875 79.3398 76.9922C78.3945 77.6641 77.4727 78 76.5742 78C75.4336 78 74.668 77.6562 74.2773 76.9688C74.1523 76.7578 74.0898 76.5742 74.0898 76.418C74.0898 76.2539 74.0898 76.1562 74.0898 76.125ZM70.7383 72.9258C70.7383 73.832 71.1172 74.2852 71.875 74.2852C72.7109 74.2852 73.6953 73.6094 74.8281 72.2578C75.4297 71.5391 75.9531 70.8516 76.3984 70.1953C76.8516 69.5391 77.1953 69.0391 77.4297 68.6953C75.4766 68.7109 73.8555 69.1562 72.5664 70.0312C71.3477 70.8594 70.7383 71.8242 70.7383 72.9258ZM84.332 78.4219C83.168 78.4219 82.5859 77.9609 82.5859 77.0391C82.5859 76.625 82.6406 76.0859 82.75 75.4219C82.9297 74.2578 83.0195 73.5703 83.0195 73.3594C83.0195 73.1484 83.0195 73.0195 83.0195 72.9727C82.9414 72.9727 82.75 73.1758 82.4453 73.582C82.1406 73.9805 81.9492 74.2383 81.8711 74.3555C81.6367 74.3711 81.4766 74.2656 81.3906 74.0391C81.3594 73.9688 81.3438 73.8984 81.3438 73.8281C81.3438 73.5938 81.4727 73.2656 81.7305 72.8438C81.9883 72.4219 82.3242 71.9062 82.7383 71.2969C83.1602 70.6875 83.5859 70.1406 84.0156 69.6562C84.9688 68.5547 85.7812 68.0039 86.4531 68.0039C87.0312 68.0039 87.3203 68.582 87.3203 69.7383C87.3203 70.418 87.2383 71.2109 87.0742 72.1172C86.918 73.0156 86.8125 73.6328 86.7578 73.9688C86.6328 74.7031 86.625 75.0703 86.7344 75.0703C87.3516 75.0703 88.2188 74.5977 89.3359 73.6523C89.2656 73.3711 89.2305 73.1172 89.2305 72.8906C89.2305 72.6641 89.2461 72.4375 89.2773 72.2109C89.3086 71.9766 89.3516 71.7266 89.4062 71.4609C89.4609 71.1953 89.5195 70.9219 89.582 70.6406C89.6445 70.3594 89.7109 70.0938 89.7812 69.8438C89.9375 69.2891 90.0547 68.9414 90.1328 68.8008C90.2109 68.6523 90.3242 68.4922 90.4727 68.3203C90.6211 68.1406 90.7969 67.9688 91 67.8047C91.4688 67.4297 91.8594 67.2422 92.1719 67.2422C92.4844 67.2422 92.7148 67.3242 92.8633 67.4883C93.0117 67.6445 93.1328 67.8516 93.2266 68.1094C93.4141 68.6406 93.5078 69.2656 93.5078 69.9844C93.5078 70.6953 93.2266 71.5039 92.6641 72.4102C93.2266 73.418 93.707 73.9219 94.1055 73.9219C94.7461 73.9219 95.4688 73.4805 96.2734 72.5977C96.5156 72.332 96.7422 72.0391 96.9531 71.7188C97.3047 71.6953 97.4805 71.8398 97.4805 72.1523C97.4805 72.6055 97.1016 73.3516 96.3438 74.3906C95.6094 75.3906 94.8594 76.0586 94.0938 76.3945C93.8359 76.5117 93.5859 76.5703 93.3438 76.5703C92.0469 76.5703 91 76.1367 90.2031 75.2695C88.5938 76.7227 87.0664 77.6953 85.6211 78.1875C85.1445 78.3438 84.7148 78.4219 84.332 78.4219ZM99.9297 73.3945C100.383 74.207 101.41 74.6133 103.012 74.6133C104.012 74.6133 104.953 74.3711 105.836 73.8867C106.727 73.3945 107.488 72.6719 108.121 71.7188C108.473 71.6953 108.648 71.8398 108.648 72.1523C108.648 72.5039 108.438 73.0117 108.016 73.6758C107.602 74.332 107.211 74.8633 106.844 75.2695C106.484 75.6758 106.078 76.0547 105.625 76.4062C105.18 76.75 104.699 77.0469 104.184 77.2969C103.066 77.8438 101.891 78.1172 100.656 78.1172C98.1719 78.1172 96.5586 77.4297 95.8164 76.0547C95.5508 75.5547 95.418 74.9844 95.418 74.3438C95.418 73.6953 95.5273 73.1016 95.7461 72.5625C95.9727 72.0234 96.2812 71.5117 96.6719 71.0273C97.0625 70.5352 97.5273 70.082 98.0664 69.668C98.6055 69.2539 99.1914 68.8984 99.8242 68.6016C101.168 67.9531 102.539 67.6289 103.938 67.6289C104.945 67.6289 105.637 67.9453 106.012 68.5781C106.145 68.7969 106.211 69.0898 106.211 69.457C106.211 69.8164 106.117 70.1719 105.93 70.5234C105.75 70.875 105.504 71.1953 105.191 71.4844C104.879 71.7656 104.516 72.0156 104.102 72.2344C103.688 72.4453 103.246 72.6289 102.777 72.7852C101.949 73.0664 101 73.2695 99.9297 73.3945ZM99.7656 72.3047C100.766 72.1875 101.625 71.9102 102.344 71.4727C103.102 71.0039 103.48 70.457 103.48 69.832C103.48 69.1992 103.191 68.8828 102.613 68.8828C101.863 68.8828 101.211 69.2422 100.656 69.9609C100.125 70.6484 99.8281 71.4297 99.7656 72.3047ZM110.43 77.5547C110.43 77.8672 110.168 78.0234 109.645 78.0234C108.348 78.0234 107.426 77.5078 106.879 76.4766C106.676 76.1094 106.574 75.6719 106.574 75.1641C106.574 74.6562 106.648 74.1523 106.797 73.6523C106.945 73.1445 107.145 72.6445 107.395 72.1523C107.645 71.6602 107.934 71.1836 108.262 70.7227C108.59 70.2617 108.938 69.8359 109.305 69.4453C110.078 68.6172 110.812 68.0352 111.508 67.6992C111.695 67.6133 111.863 67.5703 112.012 67.5703C112.168 67.5703 112.297 67.5742 112.398 67.582C112.656 67.6055 112.848 67.7031 112.973 67.875C112.496 68.8828 112.105 69.8047 111.801 70.6406C113.191 69.2734 114.809 68.3398 116.652 67.8398C117.254 67.6758 117.777 67.5938 118.223 67.5938C118.676 67.5938 118.938 67.6797 119.008 67.8516C119.078 68.0156 119.113 68.168 119.113 68.3086C119.113 68.4492 119.094 68.6406 119.055 68.8828C119.016 69.1172 118.914 69.4453 118.75 69.8672C118.586 70.2891 118.418 70.7148 118.246 71.1445C117.809 72.2383 117.59 72.9844 117.59 73.3828C117.59 74.0703 117.836 74.4141 118.328 74.4141C119.172 74.4141 120.102 73.8594 121.117 72.75C121.414 72.4297 121.684 72.0859 121.926 71.7188C122.277 71.6953 122.453 71.8398 122.453 72.1523C122.453 72.4023 122.293 72.8164 121.973 73.3945C121.652 73.9648 121.344 74.4609 121.047 74.8828C120.758 75.2969 120.43 75.7031 120.062 76.1016C119.695 76.5 119.293 76.8594 118.855 77.1797C117.902 77.875 116.973 78.2227 116.066 78.2227C115.16 78.2227 114.473 77.9844 114.004 77.5078C113.535 77.0312 113.301 76.3359 113.301 75.4219C113.301 74.0703 114.004 72.4531 115.41 70.5703C115.84 70 116.027 69.7148 115.973 69.7148C115.379 69.7148 114.543 70.0898 113.465 70.8398C112.395 71.5898 111.578 72.3867 111.016 73.2305C110.656 74.6914 110.461 76.1328 110.43 77.5547Z" fill="white"/>
<path d="M70.4111 24.2129C70.4111 23.9492 70.4868 23.7002 70.6382 23.4658C70.7944 23.2266 70.9995 22.9922 71.2534 22.7627C71.5073 22.5283 71.7979 22.2915 72.125 22.0522C72.457 21.813 72.7988 21.5542 73.1504 21.2759C73.502 20.9976 73.8511 20.6973 74.1978 20.375C74.5493 20.0479 74.8691 19.6816 75.1572 19.2764C75.8115 18.3682 76.2046 17.3599 76.3364 16.2515C74.8228 16.3882 73.812 16.5273 73.3042 16.6689C72.7964 16.8057 72.4131 16.9668 72.1543 17.1523C71.9004 17.3379 71.7734 17.5454 71.7734 17.7749C71.7734 18.0044 71.7905 18.1924 71.8247 18.3389C71.8638 18.4805 71.9053 18.6099 71.9492 18.7271C71.9932 18.8442 72.0322 18.9492 72.0664 19.042C72.1055 19.1348 72.125 19.2178 72.125 19.291C72.125 19.4229 71.959 19.5669 71.627 19.7231C71.3242 19.8647 71.1021 19.9355 70.9604 19.9355C70.8237 19.9355 70.6919 19.8867 70.5649 19.7891C70.438 19.6865 70.3135 19.5547 70.1914 19.3936C69.8936 18.998 69.7446 18.6147 69.7446 18.2437C69.7446 17.8726 69.8374 17.5576 70.0229 17.2988C70.2085 17.04 70.4575 16.8154 70.77 16.625C71.0874 16.4346 71.4585 16.2759 71.8833 16.1489C72.3081 16.022 72.7598 15.9146 73.2383 15.8267C73.7168 15.7388 74.2075 15.668 74.7104 15.6143C75.2183 15.5605 75.7139 15.5142 76.1973 15.4751C76.6807 15.4312 77.1372 15.3896 77.5669 15.3506C78.0015 15.3115 78.3848 15.2651 78.7168 15.2114C79.4346 15.0942 79.813 14.938 79.8521 14.7427C79.8911 14.5474 79.9448 14.3667 80.0132 14.2007C80.0815 14.0298 80.1621 13.8784 80.2549 13.7466C80.46 13.4536 80.6821 13.3071 80.9214 13.3071C81.1606 13.3071 81.356 13.4268 81.5073 13.666C81.6538 13.8955 81.7271 14.1396 81.7271 14.3984C81.7271 14.6523 81.6685 14.855 81.5513 15.0063C81.4341 15.1577 81.2705 15.292 81.0605 15.4092C80.8555 15.5215 80.6089 15.6191 80.3208 15.7021C80.0327 15.7852 79.7202 15.856 79.3833 15.9146C78.8511 16.0073 78.1089 16.0952 77.1567 16.1782C77.1665 16.3931 77.1714 16.6006 77.1714 16.8008C77.1714 16.9961 77.1665 17.2402 77.1567 17.5332C77.1519 17.8213 77.1299 18.1826 77.0908 18.6172C77.0566 19.0518 77.0103 19.4839 76.9517 19.9136C76.8979 20.3433 76.8369 20.7461 76.7686 21.1221C76.6318 21.9033 76.4951 22.4551 76.3584 22.7773C76.2266 23.0996 76.0703 23.4097 75.8896 23.7075C75.709 24.0054 75.5088 24.2886 75.2891 24.5571C75.0742 24.8257 74.8447 25.0771 74.6006 25.3115C74.3564 25.541 74.1074 25.7412 73.8535 25.9121C73.3164 26.2783 72.8306 26.4614 72.396 26.4614C71.9663 26.4614 71.5269 26.2148 71.0776 25.7217C70.6333 25.2334 70.4111 24.7305 70.4111 24.2129ZM79.8887 26C78.8242 26 78.292 25.3921 78.292 24.1763C78.292 23.146 78.8608 21.8276 79.9985 20.2212C80.9995 18.8101 82.0835 17.6284 83.2505 16.6763C83.9878 16.0757 84.5322 15.7754 84.8838 15.7754C85.1426 15.7754 85.3721 15.895 85.5723 16.1343C85.792 16.3882 85.9019 16.6494 85.9019 16.918C85.9019 17.1816 85.8433 17.4209 85.7261 17.6357C85.6138 17.8457 85.46 18.0581 85.2646 18.2729C85.0742 18.4878 84.8472 18.7002 84.5835 18.9102C84.3247 19.1201 84.0488 19.3179 83.7559 19.5034C83.1504 19.894 82.5571 20.187 81.9761 20.3823C81.7661 20.8462 81.5586 21.3613 81.3535 21.9277C82.3398 21.0391 83.4897 20.4189 84.8032 20.0674C85.2231 19.9551 85.5771 19.8989 85.8652 19.8989C86.1533 19.8989 86.3267 19.9502 86.3853 20.0527C86.4438 20.1504 86.4536 20.2822 86.4146 20.4482C86.3804 20.6143 86.312 20.8022 86.2095 21.0122C86.1069 21.2222 86.002 21.4395 85.8945 21.6641C85.626 22.2451 85.4917 22.6602 85.4917 22.9092C85.4917 23.4219 85.6553 23.6782 85.9824 23.6782C86.3438 23.6782 86.7466 23.5146 87.1909 23.1875C87.5864 22.8896 87.9331 22.5186 88.231 22.0742C88.4507 22.0596 88.5605 22.1499 88.5605 22.3452C88.5605 22.5015 88.458 22.7554 88.2529 23.1069C88.0527 23.4536 87.855 23.7539 87.6597 24.0078C87.4644 24.2617 87.2446 24.5132 87.0005 24.7622C86.7563 25.0063 86.4951 25.2236 86.2168 25.4141C85.5918 25.8486 84.9912 26.0659 84.415 26.0659C83.8389 26.0659 83.4287 25.9194 83.1846 25.6265C82.9453 25.3286 82.8257 24.9038 82.8257 24.3521C82.8257 23.644 83.2529 22.7578 84.1074 21.6934C84.3711 21.3662 84.4858 21.2026 84.4517 21.2026C84.061 21.2026 83.4678 21.4468 82.6719 21.9351C81.8271 22.4526 81.2314 22.9604 80.8848 23.4585C80.6846 24.2446 80.5649 24.9941 80.5259 25.707C80.5259 25.9023 80.3135 26 79.8887 26ZM82.3862 19.5327C83.0161 19.2446 83.5581 18.9004 84.0122 18.5C84.4663 18.0898 84.6934 17.7358 84.6934 17.438C84.6934 17.2915 84.6641 17.1572 84.6055 17.0352C84.5518 16.9082 84.4785 16.8447 84.3857 16.8447C84.2979 16.8447 84.1831 16.9106 84.0415 17.0425C83.8999 17.1743 83.7412 17.3574 83.5654 17.5918C83.1943 18.0801 82.8013 18.7271 82.3862 19.5327ZM90.0767 23.1216C90.3599 23.6294 91.002 23.8833 92.0029 23.8833C92.6279 23.8833 93.2163 23.7319 93.7681 23.4292C94.3247 23.1216 94.8008 22.6699 95.1963 22.0742C95.416 22.0596 95.5259 22.1499 95.5259 22.3452C95.5259 22.5649 95.394 22.8823 95.1304 23.2974C94.8716 23.7075 94.6274 24.0396 94.3979 24.2935C94.1733 24.5474 93.9194 24.7842 93.6362 25.0039C93.3579 25.2188 93.0576 25.4043 92.7354 25.5605C92.0371 25.9023 91.3022 26.0732 90.5308 26.0732C88.978 26.0732 87.9697 25.6436 87.5059 24.7842C87.3398 24.4717 87.2568 24.1152 87.2568 23.7148C87.2568 23.3096 87.3252 22.9385 87.4619 22.6016C87.6035 22.2646 87.7964 21.9448 88.0405 21.6421C88.2847 21.3345 88.5752 21.0513 88.9121 20.7925C89.249 20.5337 89.6152 20.3115 90.0107 20.126C90.8506 19.7207 91.7075 19.5181 92.5815 19.5181C93.2114 19.5181 93.6436 19.7158 93.8779 20.1113C93.9609 20.248 94.0024 20.4312 94.0024 20.6606C94.0024 20.8853 93.9438 21.1074 93.8267 21.3271C93.7144 21.5469 93.5605 21.7471 93.3652 21.9277C93.1699 22.1035 92.9429 22.2598 92.6841 22.3965C92.4253 22.5283 92.1494 22.6431 91.8564 22.7407C91.3389 22.9165 90.7456 23.0435 90.0767 23.1216ZM89.9741 22.4404C90.5991 22.3672 91.1362 22.1938 91.5854 21.9204C92.0591 21.6274 92.2959 21.2856 92.2959 20.895C92.2959 20.4995 92.1152 20.3018 91.7539 20.3018C91.2852 20.3018 90.8774 20.5264 90.5308 20.9756C90.1987 21.4053 90.0132 21.8936 89.9741 22.4404Z" fill="white"/>
</svg>
